HIERARCHY
ROOT Hips
{
	OFFSET 0.000000 71.427986 0.000000
	CHANNELS 6 Xposition Yposition Zposition Xrotation Yrotation Zrotation
	JOINT Pelvis
	{
		OFFSET 0.000000 0.000000 0.000000
		CHANNELS 3 Xrotation Yrotation Zrotation
		JOINT LeftUpLeg
		{
			OFFSET 6.797100 -2.508499 -1.318700
			CHANNELS 3 Xrotation Yrotation Zrotation
			JOINT LeftLeg
			{
				OFFSET 0.069008 -29.241863 0.690200
				CHANNELS 3 Xrotation Yrotation Zrotation
				JOINT LeftFoot
				{
					OFFSET -0.069008 -29.568123 -0.266800
					CHANNELS 3 Xrotation Yrotation Zrotation
					JOINT LeftToeBase
					{
						OFFSET 3.145500 -8.631000 16.059900
						CHANNELS 3 Xrotation Yrotation Zrotation
						End Site
						{
							OFFSET 0.000000 18.501587 0.000000
						}
					}
				}
			}
			JOINT Left_ShortSleeve
			{
				OFFSET 0.265923 -10.480953 1.153800
				CHANNELS 3 Xrotation Yrotation Zrotation
				End Site
				{
					OFFSET 1.725763 19.823879 0.000000
				}
			}
		}
		JOINT RightUpLeg
		{
			OFFSET -6.797100 -2.508499 -1.318700
			CHANNELS 3 Xrotation Yrotation Zrotation
			JOINT RightLeg
			{
				OFFSET -0.082453 -29.241932 0.688000
				CHANNELS 3 Xrotation Yrotation Zrotation
				JOINT RightFoot
				{
					OFFSET 0.082453 -29.568058 -0.264600
					CHANNELS 3 Xrotation Yrotation Zrotation
					JOINT RightToeBase
					{
						OFFSET -3.115300 -8.682800 16.113400
						CHANNELS 3 Xrotation Yrotation Zrotation
						End Site
						{
							OFFSET 0.000000 18.567114 0.000000
						}
					}
				}
			}
			JOINT Right_ShortSleeve
			{
				OFFSET -0.265923 -10.480953 1.153800
				CHANNELS 3 Xrotation Yrotation Zrotation
				End Site
				{
					OFFSET -1.725766 19.823910 0.000000
				}
			}
		}
	}
	JOINT Spine
	{
		OFFSET 0.000000 13.368103 0.470500
		CHANNELS 3 Xrotation Yrotation Zrotation
		JOINT Spine1
		{
			OFFSET 0.147000 13.837402 0.538800
			CHANNELS 3 Xrotation Yrotation Zrotation
			JOINT Spine2
			{
				OFFSET 0.168000 16.242897 -1.435500
				CHANNELS 3 Xrotation Yrotation Zrotation
				JOINT Neck
				{
					OFFSET 0.217200 18.631500 -1.679100
					CHANNELS 3 Xrotation Yrotation Zrotation
					JOINT Head
					{
						OFFSET 0.000000 6.599396 1.385900
						CHANNELS 3 Xrotation Yrotation Zrotation
						JOINT Hat
						{
							OFFSET -0.532200 27.220596 -10.096100
							CHANNELS 3 Xrotation Yrotation Zrotation
							End Site
							{
								OFFSET 0.000000 22.029861 0.000000
							}
						}
						JOINT HairD
						{
							OFFSET -10.777400 17.437393 -1.325900
							CHANNELS 3 Xrotation Yrotation Zrotation
							JOINT HairD1
							{
								OFFSET -3.290299 -11.051193 1.062200
								CHANNELS 3 Xrotation Yrotation Zrotation
								End Site
								{
									OFFSET 0.000000 11.579437 0.000000
								}
							}
						}
						JOINT HairB
						{
							OFFSET -10.777400 17.437393 1.467900
							CHANNELS 3 Xrotation Yrotation Zrotation
							JOINT HairB1
							{
								OFFSET -1.561200 -12.956299 3.590200
								CHANNELS 3 Xrotation Yrotation Zrotation
								End Site
								{
									OFFSET 0.000000 13.534866 0.000000
								}
							}
						}
						JOINT HairA
						{
							OFFSET 9.713100 17.437393 1.467900
							CHANNELS 3 Xrotation Yrotation Zrotation
							JOINT HairA1
							{
								OFFSET 1.561200 -12.956299 3.590200
								CHANNELS 3 Xrotation Yrotation Zrotation
								End Site
								{
									OFFSET 0.000000 13.534866 0.000000
								}
							}
						}
						JOINT HairC
						{
							OFFSET 9.713100 17.437393 -1.325900
							CHANNELS 3 Xrotation Yrotation Zrotation
							JOINT HairC1
							{
								OFFSET 3.290300 -11.051193 1.062200
								CHANNELS 3 Xrotation Yrotation Zrotation
								End Site
								{
									OFFSET 0.000000 11.579437 0.000000
								}
							}
						}
					}
				}
				JOINT LeftShoulder
				{
					OFFSET 5.101800 15.108002 -2.763700
					CHANNELS 3 Xrotation Yrotation Zrotation
					JOINT LeftArm
					{
						OFFSET 9.825497 2.506317 -1.597400
						CHANNELS 3 Xrotation Yrotation Zrotation
						JOINT LeftForeArm
						{
							OFFSET 21.966244 0.000000 0.000000
							CHANNELS 3 Xrotation Yrotation Zrotation
							JOINT LeftHand
							{
								OFFSET 33.879036 0.000000 0.000000
								CHANNELS 3 Xrotation Yrotation Zrotation
								JOINT LeftHandThumb1
								{
									OFFSET 6.715286 -2.359680 3.363841
									CHANNELS 3 Xrotation Yrotation Zrotation
									JOINT LeftHandThumb2
									{
										OFFSET 2.507072 -1.447464 1.447461
										CHANNELS 3 Xrotation Yrotation Zrotation
										JOINT LeftHandThumb3
										{
											OFFSET 2.898338 -1.673355 1.673357
											CHANNELS 3 Xrotation Yrotation Zrotation
											End Site
											{
												OFFSET -0.295959 3.727692 -0.131651
											}
										}
									}
								}
								JOINT LeftHandIndex1
								{
									OFFSET 14.190811 -0.254547 3.840278
									CHANNELS 3 Xrotation Yrotation Zrotation
									JOINT LeftHandIndex2
									{
										OFFSET 3.551727 0.000000 -0.000000
										CHANNELS 3 Xrotation Yrotation Zrotation
										JOINT LeftHandIndex3
										{
											OFFSET 2.894196 0.000000 0.000000
											CHANNELS 3 Xrotation Yrotation Zrotation
											End Site
											{
												OFFSET -1.000603 2.690872 0.366626
											}
										}
									}
								}
								JOINT LeftHandMiddle1
								{
									OFFSET 13.776489 0.000000 0.000000
									CHANNELS 3 Xrotation Yrotation Zrotation
									JOINT LeftHandMiddle2
									{
										OFFSET 3.438232 0.000000 0.000000
										CHANNELS 3 Xrotation Yrotation Zrotation
										JOINT LeftHandMiddle3
										{
											OFFSET 3.691551 0.000000 0.000000
											CHANNELS 3 Xrotation Yrotation Zrotation
											End Site
											{
												OFFSET -1.082298 3.499527 0.457670
											}
										}
									}
								}
								JOINT LeftHandRing1
								{
									OFFSET 13.966164 -0.268127 -3.067488
									CHANNELS 3 Xrotation Yrotation Zrotation
									JOINT LeftHandRing2
									{
										OFFSET 3.162567 0.000000 0.000000
										CHANNELS 3 Xrotation Yrotation Zrotation
										JOINT LeftHandRing3
										{
											OFFSET 3.324348 0.000000 0.000000
											CHANNELS 3 Xrotation Yrotation Zrotation
											End Site
											{
												OFFSET -0.861900 3.184998 0.405154
											}
										}
									}
								}
								JOINT LeftHandPinky1
								{
									OFFSET 13.131393 -0.168503 -5.746925
									CHANNELS 3 Xrotation Yrotation Zrotation
									JOINT LeftHandPinky2
									{
										OFFSET 2.849182 0.000000 0.000000
										CHANNELS 3 Xrotation Yrotation Zrotation
										JOINT LeftHandPinky3
										{
											OFFSET 2.805038 0.000000 0.000000
											CHANNELS 3 Xrotation Yrotation Zrotation
											End Site
											{
												OFFSET -0.882500 2.642609 0.325652
											}
										}
									}
								}
							}
							JOINT Left_Sleeve
							{
								OFFSET 6.592125 -0.646545 0.805568
								CHANNELS 3 Xrotation Yrotation Zrotation
								End Site
								{
									OFFSET -0.000179 20.275787 -0.000000
								}
							}
						}
					}
				}
				JOINT RightShoulder
				{
					OFFSET -5.731700 15.108002 -2.763700
					CHANNELS 3 Xrotation Yrotation Zrotation
					JOINT RightArm
					{
						OFFSET -9.825497 2.506317 -1.597400
						CHANNELS 3 Xrotation Yrotation Zrotation
						JOINT RightForeArm
						{
							OFFSET -21.966242 0.000000 0.000000
							CHANNELS 3 Xrotation Yrotation Zrotation
							JOINT RightHand
							{
								OFFSET -33.879032 0.000000 0.000000
								CHANNELS 3 Xrotation Yrotation Zrotation
								JOINT RightHandThumb1
								{
									OFFSET -6.715286 -2.359680 3.363841
									CHANNELS 3 Xrotation Yrotation Zrotation
									JOINT RightHandThumb2
									{
										OFFSET -2.507072 -1.447464 1.447461
										CHANNELS 3 Xrotation Yrotation Zrotation
										JOINT RightHandThumb3
										{
											OFFSET -2.898338 -1.673355 1.673357
											CHANNELS 3 Xrotation Yrotation Zrotation
											End Site
											{
												OFFSET 0.295959 3.727692 -0.131651
											}
										}
									}
								}
								JOINT RightHandIndex1
								{
									OFFSET -14.190811 -0.254547 3.840278
									CHANNELS 3 Xrotation Yrotation Zrotation
									JOINT RightHandIndex2
									{
										OFFSET -3.551727 0.000000 -0.000000
										CHANNELS 3 Xrotation Yrotation Zrotation
										JOINT RightHandIndex3
										{
											OFFSET -2.894196 0.000000 0.000000
											CHANNELS 3 Xrotation Yrotation Zrotation
											End Site
											{
												OFFSET 1.000603 2.690872 0.366626
											}
										}
									}
								}
								JOINT RightHandMiddle1
								{
									OFFSET -13.776489 0.000000 0.000000
									CHANNELS 3 Xrotation Yrotation Zrotation
									JOINT RightHandMiddle2
									{
										OFFSET -3.438232 0.000000 0.000000
										CHANNELS 3 Xrotation Yrotation Zrotation
										JOINT RightHandMiddle3
										{
											OFFSET -3.691551 0.000000 0.000000
											CHANNELS 3 Xrotation Yrotation Zrotation
											End Site
											{
												OFFSET 1.082298 3.499527 0.457670
											}
										}
									}
								}
								JOINT RightHandRing1
								{
									OFFSET -13.966164 -0.268127 -3.067488
									CHANNELS 3 Xrotation Yrotation Zrotation
									JOINT RightHandRing2
									{
										OFFSET -3.162567 0.000000 0.000000
										CHANNELS 3 Xrotation Yrotation Zrotation
										JOINT RightHandRing3
										{
											OFFSET -3.324348 0.000000 0.000000
											CHANNELS 3 Xrotation Yrotation Zrotation
											End Site
											{
												OFFSET 0.861900 3.184998 0.405154
											}
										}
									}
								}
								JOINT RightHandPinky1
								{
									OFFSET -13.131393 -0.168503 -5.746925
									CHANNELS 3 Xrotation Yrotation Zrotation
									JOINT RightHandPinky2
									{
										OFFSET -2.849182 0.000000 0.000000
										CHANNELS 3 Xrotation Yrotation Zrotation
										JOINT RightHandPinky3
										{
											OFFSET -2.805038 0.000000 0.000000
											CHANNELS 3 Xrotation Yrotation Zrotation
											End Site
											{
												OFFSET 0.882500 2.642609 0.325652
											}
										}
									}
								}
							}
							JOINT Right_Sleeve
							{
								OFFSET -6.592125 -0.646545 0.805568
								CHANNELS 3 Xrotation Yrotation Zrotation
								End Site
								{
									OFFSET 0.000179 20.275787 -0.000000
								}
							}
						}
					}
				}
				JOINT Bind_Right_JacketString
				{
					OFFSET -3.534800 11.969597 7.200700
					CHANNELS 3 Xrotation Yrotation Zrotation
					JOINT Bind_Right_JacketString1
					{
						OFFSET -0.319900 -6.102600 2.794100
						CHANNELS 3 Xrotation Yrotation Zrotation
						End Site
						{
							OFFSET 0.000000 6.719452 0.000000
						}
					}
				}
				JOINT Bind_Left_JacketString
				{
					OFFSET 2.904800 11.969597 7.200700
					CHANNELS 3 Xrotation Yrotation Zrotation
					JOINT Bind_Left_JacketString1
					{
						OFFSET 0.364800 -5.904503 3.186800
						CHANNELS 3 Xrotation Yrotation Zrotation
						End Site
						{
							OFFSET 0.000000 6.719513 0.000000
						}
					}
				}
				JOINT HairE
				{
					OFFSET 5.915200 17.612701 -11.592200
					CHANNELS 3 Xrotation Yrotation Zrotation
					JOINT HairE1
					{
						OFFSET 0.289200 -7.171898 -1.284500
						CHANNELS 3 Xrotation Yrotation Zrotation
						End Site
						{
							OFFSET 0.000000 7.291756 0.000000
						}
					}
				}
				JOINT HairF
				{
					OFFSET -0.864800 17.612701 -11.592200
					CHANNELS 3 Xrotation Yrotation Zrotation
					JOINT HairF1
					{
						OFFSET 0.000000 -14.087097 -2.127501
						CHANNELS 3 Xrotation Yrotation Zrotation
						End Site
						{
							OFFSET 0.000000 14.246841 0.000000
						}
					}
				}
				JOINT HairG
				{
					OFFSET -8.087700 17.612701 -11.592200
					CHANNELS 3 Xrotation Yrotation Zrotation
					JOINT HairG1
					{
						OFFSET -0.293600 -6.081398 -0.910100
						CHANNELS 3 Xrotation Yrotation Zrotation
						End Site
						{
							OFFSET 0.000000 6.156120 0.000000
						}
					}
				}
			}
		}
	}
	JOINT Pouch
	{
		OFFSET 0.000000 4.394501 10.847300
		CHANNELS 3 Xrotation Yrotation Zrotation
		End Site
		{
			OFFSET 0.000000 21.880577 0.000000
		}
	}
	JOINT Bag
	{
		OFFSET -13.229000 4.813004 -0.593300
		CHANNELS 3 Xrotation Yrotation Zrotation
		End Site
		{
			OFFSET 0.000000 21.880577 0.000000
		}
	}
	JOINT OccupyGuyFacialAnim_Joint
	{
		OFFSET 1.000000 -70.206398 -1.655000
		CHANNELS 3 Xrotation Yrotation Zrotation
		End Site
		{
			OFFSET 0.000000 21.880577 0.000000
		}
	}
}
MOTION
Frames: 4
Frame Time: 0.033333
-0.044362 70.500214 1.303422 -4.713015 1.137851 1.218663 0.000000 -0.000000 0.000000 -24.765844 6.231027 0.354052 59.779469 2.973493 5.866686 0.234156 2.913652 -1.845053 0.000004 -0.000001 0.000000 0.000001 -0.000000 -0.000000 -4.098275 -6.607742 4.096148 17.720583 0.600706 -0.418377 -8.901562 0.747582 -5.854781 -0.000000 0.000000 -0.000000 -0.000000 0.000000 0.000000 9.045877 -5.070905 1.620429 2.907635 -1.464809 -1.439101 2.936851 -1.395272 -1.408865 -0.313013 -0.632689 3.236822 -13.642820 1.478887 -0.478430 0.000000 0.000000 0.000000 0.000000 0.000000 0.000000 0.000000 0.000000 0.000000 0.000000 0.000000 0.000000 0.000000 0.000000 0.000000 0.000000 0.000000 0.000000 0.000000 0.000000 0.000000 0.000000 0.000000 0.000000 0.000000 0.000000 0.000000 0.575626 -0.827662 -9.114502 -0.355669 -13.688861 -59.280202 0.000306 -80.747821 0.000322 -126.772109 8.382946 13.940131 17.322272 -37.413983 18.619106 -12.533880 8.749664 -5.074203 0.000000 0.000001 -0.000003 -8.304939 2.722345 -67.324082 3.992649 5.549051 -71.451094 0.000000 -0.000001 -0.000000 -6.730849 3.639014 -68.429616 3.552727 5.382195 -66.834760 0.000001 -0.000000 0.000001 -2.632386 5.165360 -67.562578 4.126265 5.591910 -72.827336 -0.000002 0.000002 -0.000001 -2.305430 4.694546 -62.624413 3.693072 5.439887 -68.322990 -0.000001 -0.000002 0.000002 0.000000 0.000000 -0.000001 8.041108 16.041504 -3.177987 6.913117 11.160257 62.195573 0.000049 105.932635 -0.000023 -22.603995 -15.712328 31.955098 61.334375 30.777464 -12.521081 -16.865171 -36.773540 -14.662299 -0.000002 -0.000003 -0.000005 -2.520351 4.938611 18.299310 1.715300 -3.611911 50.794321 -0.000001 -0.000000 0.000002 9.149420 -8.657911 71.635441 6.185905 -4.399627 109.182377 0.000004 -0.000001 0.000001 5.893625 -7.437566 74.427321 4.024102 -4.614047 82.178917 -0.000001 0.000000 0.000000 7.653978 -7.531547 79.885100 1.640494 -3.549733 49.596691 0.000002 0.000000 0.000000 0.000001 -0.000001 0.000001 -0.000001 0.000000 0.000000 0.000000 0.000000 -0.000000 -0.000001 0.000000 0.000000 -0.000001 0.000000 0.000000 -0.000001 0.000000 0.000000 0.000000 0.000000 -0.000000 -0.000001 0.000000 0.000000 -0.000001 0.000000 0.000000 -0.000001 0.000000 0.000000 0.000000 0.000000 -0.000000 0.000000 -0.000000 0.000000 0.000000 -0.000000 0.000000 0.000000 -0.000000 0.000000 
0.002508 70.493179 2.951977 -4.242711 1.434872 1.188890 -0.000000 0.000000 -0.000000 -26.253733 6.599044 0.813077 54.527207 1.663876 5.219306 -3.369403 3.311345 -1.628835 0.000002 0.000001 0.000000 -0.000002 0.000000 -0.000001 -2.963783 -6.076803 4.022285 17.671786 -0.228373 -0.120530 -10.491954 1.157624 -5.666789 0.000000 0.000000 -0.000000 -0.000000 -0.000000 -0.000000 8.105263 -5.225053 1.403265 2.919623 -1.519137 -1.433541 2.948531 -1.449946 -1.402888 -0.210716 -0.619082 3.172971 -13.439651 1.309804 -0.367521 -0.000000 0.000000 -0.000000 -0.000000 0.000000 -0.000000 -0.000000 0.000000 0.000000 -0.000000 0.000000 -0.000000 0.000000 0.000000 0.000000 -0.000000 0.000000 -0.000000 0.000000 0.000000 0.000000 -0.000000 0.000000 -0.000000 -0.000000 0.000000 -0.000000 0.623278 -1.120919 -9.365450 -0.383577 -12.798980 -59.355867 -0.000003 -80.892471 -0.000006 -126.586532 8.825031 14.044767 17.322254 -37.413997 18.619099 -12.533880 8.749652 -5.074200 -0.000000 0.000001 -0.000002 -8.304941 2.722338 -67.324095 3.992662 5.549049 -71.451073 0.000000 0.000001 -0.000002 -6.730864 3.639013 -68.429616 3.552733 5.382197 -66.834794 0.000002 -0.000001 0.000001 -2.632392 5.165351 -67.562592 4.126271 5.591913 -72.827309 0.000001 -0.000003 -0.000003 -2.305429 4.694541 -62.624420 3.693066 5.439867 -68.323011 0.000001 -0.000000 0.000001 0.000001 -0.000001 0.000001 8.002971 15.939561 -3.061852 7.066043 11.760469 61.648270 0.000040 106.027636 -0.000032 -22.856697 -15.844847 31.360448 61.334375 30.777464 -12.521083 -16.865177 -36.773544 -14.662292 0.000002 -0.000001 -0.000001 -2.520352 4.938612 18.299311 1.715299 -3.611910 50.794321 0.000002 -0.000001 0.000004 9.149418 -8.657911 71.635434 6.185901 -4.399625 109.182370 0.000002 -0.000002 -0.000003 5.893622 -7.437568 74.427308 4.024105 -4.614047 82.178917 -0.000001 0.000000 -0.000002 7.653978 -7.531550 79.885100 1.640490 -3.549731 49.596691 -0.000000 0.000003 0.000003 0.000001 -0.000000 -0.000001 -0.000001 0.000000 -0.000000 -0.000001 0.000000 -0.000000 -0.000001 0.000000 -0.000000 -0.000001 0.000000 -0.000000 -0.000001 0.000000 -0.000000 -0.000001 0.000000 -0.000000 -0.000001 0.000000 -0.000000 -0.000001 0.000000 -0.000000 -0.000001 0.000000 -0.000000 -0.000001 0.000000 -0.000000 -0.000000 0.000000 -0.000000 -0.000000 0.000000 -0.000000 -0.000000 0.000000 -0.000000 
0.049937 70.375221 4.586427 -3.773985 1.742928 1.161479 -0.000000 -0.000000 -0.000000 -26.875580 7.079210 1.104513 48.003686 0.259270 4.576523 -7.007116 3.698886 -1.455415 0.000001 0.000001 -0.000000 0.000000 -0.000000 -0.000000 -2.153012 -5.744385 3.946961 18.309994 -1.075004 0.159289 -12.447140 1.549427 -5.481889 0.000000 -0.000000 -0.000000 0.000000 -0.000000 -0.000000 6.863424 -5.317169 1.335758 3.140610 -1.556649 -1.349066 3.169194 -1.485147 -1.318385 -0.096210 -0.606412 3.095626 -12.967023 1.257780 -0.304407 -0.000000 0.000000 -0.000000 -0.000000 0.000000 -0.000000 -0.000000 0.000000 -0.000000 -0.000000 0.000000 -0.000000 0.000000 0.000000 0.000000 -0.000000 0.000000 -0.000000 0.000000 0.000000 0.000000 -0.000000 0.000000 -0.000000 -0.000000 0.000000 -0.000000 0.683235 -1.402473 -9.692706 -0.498889 -11.797174 -59.469228 0.000152 -81.068390 0.000165 -126.287985 9.354523 14.283174 17.322287 -37.413963 18.619118 -12.533885 8.749644 -5.074202 -0.000000 0.000001 -0.000002 -8.304912 2.722374 -67.324095 3.992663 5.549051 -71.451073 0.000001 0.000002 0.000004 -6.730858 3.639032 -68.429616 3.552724 5.382210 -66.834781 0.000002 0.000002 -0.000003 -2.632391 5.165365 -67.562606 4.126251 5.591920 -72.827370 0.000001 0.000002 -0.000001 -2.305411 4.694564 -62.624420 3.693087 5.439860 -68.323004 -0.000001 0.000002 0.000003 -0.000000 0.000000 -0.000000 7.961288 15.825523 -2.933684 7.240067 12.410700 61.022262 0.000082 106.113928 -0.000095 -23.199062 -15.957566 30.702889 61.334375 30.777468 -12.521083 -16.865180 -36.773537 -14.662292 0.000000 -0.000002 -0.000002 -2.520349 4.938614 18.299310 1.715301 -3.611909 50.794317 -0.000002 0.000001 -0.000001 9.149418 -8.657912 71.635434 6.185903 -4.399625 109.182377 0.000003 0.000003 -0.000002 5.893626 -7.437565 74.427321 4.024103 -4.614048 82.178917 -0.000001 0.000001 -0.000004 7.653977 -7.531549 79.885093 1.640488 -3.549732 49.596691 0.000003 0.000002 -0.000001 0.000001 -0.000002 -0.000002 -0.000000 0.000000 0.000000 -0.000000 -0.000000 0.000000 -0.000000 0.000000 -0.000000 -0.000000 0.000000 -0.000000 -0.000000 0.000000 0.000000 -0.000000 -0.000000 0.000000 -0.000000 0.000000 -0.000000 -0.000000 0.000000 -0.000000 -0.000000 0.000000 0.000000 -0.000000 -0.000000 0.000000 -0.000000 -0.000000 -0.000000 -0.000000 -0.000000 -0.000000 -0.000000 -0.000000 -0.000000 
0.057064 70.252586 6.194481 -3.503767 1.726901 0.872831 -0.000000 0.000000 -0.000000 -26.316857 7.478825 1.492226 39.832062 -0.878654 3.939178 -9.480240 4.095511 -1.554866 0.000000 0.000002 -0.000000 -0.000001 0.000001 -0.000001 -0.771416 -5.305595 4.212543 18.183284 -1.544412 0.429362 -13.958578 1.768459 -5.402567 0.000000 -0.000000 0.000000 -0.000000 0.000000 -0.000002 5.875059 -5.092423 1.287134 3.240502 -1.495628 -1.241820 3.268182 -1.424170 -1.212014 0.008420 -0.607126 3.029640 -12.441592 1.127070 -0.283452 0.000000 -0.000000 0.000000 0.000000 -0.000000 0.000000 0.000000 -0.000000 0.000000 0.000000 -0.000000 0.000000 0.000000 -0.000000 0.000000 0.000000 -0.000000 0.000000 0.000000 -0.000000 0.000000 0.000000 -0.000000 0.000000 0.000000 -0.000000 0.000000 0.744822 -1.727575 -10.083313 -0.562592 -10.823558 -59.401219 -0.000246 -81.302296 -0.000270 -126.091057 9.803820 14.535519 17.322285 -37.413987 18.619118 -12.533885 8.749671 -5.074207 0.000001 -0.000000 -0.000003 -8.304930 2.722339 -67.324089 3.992650 5.549031 -71.451101 0.000002 -0.000002 -0.000000 -6.730845 3.639022 -68.429609 3.552719 5.382215 -66.834801 0.000002 0.000001 -0.000004 -2.632402 5.165344 -67.562592 4.126254 5.591936 -72.827315 0.000001 0.000002 -0.000001 -2.305404 4.694563 -62.624413 3.693096 5.439851 -68.323004 -0.000002 -0.000003 0.000001 0.000004 -0.000000 -0.000001 7.916772 15.700894 -2.795158 7.432142 13.104303 60.327673 0.000023 106.190747 -0.000042 -23.625778 -16.048805 29.989281 61.334368 30.777468 -12.521082 -16.865178 -36.773544 -14.662299 0.000000 -0.000001 0.000000 -2.520349 4.938616 18.299308 1.715304 -3.611909 50.794317 0.000002 -0.000001 0.000002 9.149418 -8.657912 71.635434 6.185904 -4.399625 109.182377 -0.000000 -0.000001 0.000001 5.893627 -7.437565 74.427315 4.024105 -4.614048 82.178917 0.000002 0.000002 -0.000006 7.653981 -7.531546 79.885100 1.640490 -3.549732 49.596695 -0.000003 0.000003 -0.000001 0.000000 -0.000002 -0.000002 -0.000000 -0.000001 0.000000 0.000001 -0.000000 -0.000000 -0.000000 -0.000001 0.000000 -0.000000 -0.000001 0.000000 -0.000000 -0.000001 0.000000 0.000001 -0.000000 -0.000000 -0.000000 -0.000001 0.000000 -0.000000 -0.000001 0.000000 -0.000000 -0.000001 0.000000 0.000001 -0.000000 -0.000000 -0.000000 0.000000 -0.000000 -0.000000 0.000000 -0.000000 -0.000000 0.000000 -0.000000 
